/* XPM */
static char *f852732d173d41f2839834f665a1abf6w04o3CZql7GR6y17[] = {
/* columns rows colors chars-per-pixel */
"64 64 256 2 ",
"   c #0C0801",
".  c #130C02",
"X  c #180A04",
"o  c #18170A",
"O  c #151415",
"+  c #1B1B14",
"@  c #1C1B1B",
"#  c #181617",
"$  c #0B0E14",
"%  c #28180A",
"&  c #221C1C",
"*  c #291B15",
"=  c #341E1A",
"-  c #2E1609",
";  c #1E2116",
":  c #27230D",
">  c #21221C",
",  c #2B2518",
"<  c #372619",
"1  c #3B351B",
"2  c #362A0E",
"3  c #1D1B23",
"4  c #151824",
"5  c #0D192B",
"6  c #221E22",
"7  c #331F21",
"8  c #1D2125",
"9  c #1B2635",
"0  c #242323",
"q  c #2B2524",
"w  c #2E2926",
"e  c #2C2A2A",
"r  c #242629",
"t  c #332524",
"y  c #322926",
"u  c #342C2B",
"i  c #3B2D2B",
"p  c #392B24",
"a  c #3B322C",
"s  c #383329",
"d  c #2A2B34",
"f  c #362E31",
"g  c #3D3333",
"h  c #3B3736",
"j  c #2E3128",
"k  c #472C1B",
"l  c #4C2E16",
"z  c #452C26",
"x  c #433324",
"c  c #4B3B2C",
"v  c #473529",
"b  c #583A29",
"n  c #413534",
"m  c #433A35",
"M  c #463A38",
"N  c #553D36",
"B  c #572B22",
"V  c #673A29",
"C  c #66392D",
"Z  c #56210C",
"A  c #3B4316",
"S  c #3F4239",
"D  c #49521A",
"F  c #494639",
"G  c #594538",
"H  c #51522D",
"J  c #67472A",
"K  c #664A38",
"L  c #754935",
"P  c #6B553A",
"I  c #76563A",
"U  c #70582D",
"Y  c #6C7236",
"T  c #55611F",
"R  c #172B47",
"E  c #262E46",
"W  c #27354A",
"Q  c #233552",
"!  c #333D53",
"~  c #283760",
"^  c #394352",
"/  c #364D6E",
"(  c #1F4B78",
")  c #584741",
"_  c #505250",
"`  c #644C45",
"'  c #695548",
"]  c #775946",
"[  c #7A5B51",
"{  c #6C534E",
"}  c #7C6648",
"|  c #767945",
" . c #767957",
".. c #6F684E",
"X. c #4C586F",
"o. c #536276",
"O. c #6E716F",
"+. c #5F6559",
"@. c #84593C",
"#. c #844531",
"$. c #8F693F",
"%. c #865A46",
"&. c #935D4C",
"*. c #886648",
"=. c #936849",
"-. c #876856",
";. c #966B56",
":. c #97755A",
">. c #8F744F",
",. c #A66C5B",
"<. c #A3755B",
"1. c #AE6D51",
"2. c #8B7C67",
"3. c #997A65",
"4. c #886862",
"5. c #A57C65",
"6. c #B77B69",
"7. c #A95E47",
"8. c #79853A",
"9. c #7D8646",
"0. c #7A845B",
"q. c #82893E",
"w. c #868C46",
"e. c #8C934C",
"r. c #889245",
"t. c #878755",
"y. c #8B9454",
"u. c #939957",
"i. c #958F53",
"p. c #AC8859",
"a. c #878A67",
"s. c #988468",
"d. c #939765",
"f. c #90956B",
"g. c #AA866A",
"h. c #A78774",
"j. c #B98977",
"k. c #BC947C",
"l. c #B4927C",
"z. c #B18F6F",
"x. c #9AA56C",
"c. c #AFA379",
"v. c #9FA45D",
"b. c #C78977",
"n. c #C49472",
"m. c #CEAC7A",
"M. c #E5BA7E",
"N. c #F4CC7E",
"B. c #EDC57D",
"V. c #305688",
"C. c #3B6593",
"Z. c #496586",
"A. c #496D96",
"S. c #587497",
"D. c #516F92",
"F. c #677B9B",
"G. c #70788C",
"H. c #5177AD",
"J. c #6A7DA5",
"K. c #405D85",
"L. c #5C7EC3",
"P. c #72859A",
"I. c #5882A6",
"U. c #5C86B6",
"Y. c #6786A7",
"T. c #748AA9",
"R. c #6B88B6",
"E. c #768AB2",
"W. c #7A96B9",
"Q. c #6F93B5",
"!. c #6E93CB",
"~. c #77A4CB",
"^. c #5B83C0",
"/. c #8D8F8F",
"(. c #BA9C89",
"). c #AB8E83",
"_. c #B1AC90",
"`. c #8897B6",
"'. c #8D94A8",
"]. c #99A5B1",
"[. c #B4B0AD",
"{. c #A09EA3",
"}. c #C89B85",
"|. c #CF9A8C",
" X c #C9A689",
".X c #DBBA88",
"XX c #D7AA97",
"oX c #C8B695",
"OX c #DAB698",
"+X c #CCAA92",
"@X c #E4B79B",
"#X c #E4B18F",
"$X c #D0B6A8",
"%X c #E8B9A5",
"&X c #F6BDAB",
"*X c #F1ADA2",
"=X c #E29888",
"-X c #BCC2AC",
";X c #BAC394",
":X c #DDC393",
">X c #E5C284",
",X c #E9C587",
"<X c #EBC689",
"1X c #EDCB8C",
"2X c #EAC888",
"3X c #F3CC83",
"4X c #F2CC8E",
"5X c #F8CC85",
"6X c #EDD18D",
"7X c #F3D38C",
"8X c #F7D389",
"9X c #EDCC93",
"0X c #E8C896",
"qX c #F3CD92",
"wX c #F4CD98",
"eX c #EFD091",
"rX c #EDD29B",
"tX c #F2D293",
"yX c #F4D39C",
"uX c #F8D894",
"iX c #D0C9AE",
"pX c #E8C7A7",
"aX c #F4C7AB",
"sX c #EED3A5",
"dX c #F7D6A9",
"fX c #E9CEB8",
"gX c #FCC9B5",
"hX c #FFDCB3",
"jX c #FFDCBB",
"kX c #FAD4B8",
"lX c #E8D4B7",
"zX c #FFE2B1",
"xX c #D9E5B5",
"cX c #849AC5",
"vX c #859ED6",
"bX c #8CA8CF",
"nX c #AAB3CC",
"mX c #97B5EA",
"MX c #9ABEFC",
"NX c #FADAC5",
"BX c #ECD1C6",
"VX c #FDE3C9",
"CX c #F9EAD8",
"ZX c #FBF3DB",
"AX c #EAEBCA",
"SX c #F6EFE7",
"DX c #EFF6ED",
"FX c #FBF4E5",
"GX c #F3F4ED",
"HX c #FBF3EB",
"JX c #F7F7E8",
"KX c #F3F5F3",
"LX c #F9F3F2",
"PX c #EFF3EF",
"IX c #CAD3C2",
"UX c #98C1F9",
/* pixels */
"HXHXHXSXGXGXGXDXDXPXKXKXKXKXLXLXKXGXFXlXaXhX0XkXpXoX_.2.{ G ' 4.s.2.s.c.lXpXsXsXuXtX6X6X6X6X9XrX9XtXeXtXeXeXtX6XeXeX9X6X1X1XeX1X",
"HXHXLXSXGXGXDXDXPXPXKXGXKXKXLXKXPXSXFXNXaX0X0XkXpXh.4.+.` c G ] } H k P s.0XsXrXuXtXuX7X7XuXwXyXtXeXeXtXtXtXeXtX6XeX6XtXeX6X6XeX",
"LXHXLXGXDXDXDXDXDXDXDXGXGXGXPXSXGXSXCXNXpXyXdX:XP K G ' ` K K ] *.] J J } OXdXyXtX7X7X7XuXtXyXyXtXeXtXtXtXeXtXeXtXtX6X6X6X9X9X6X",
"LXKXKXKXDXDXDXDXDXDXDXGXGXHXHXLXHXFXNXfXfXVXVXg.K ] [ ' C ` ] ] P J ] J U g.dXrXrX7X7X6X7XtXrXtXeXtXtXtXtXtXtXtXtXeXtXeXtX7X9X6X",
"KXKXKXKXDXDXDXDXDXJXJXJXFXSXZXZXCXSXNXNXVXCXfXL H G v v %.|.%X%X}.5.3.] I <.sXzXtXtX7X7X4XtXtXwXtXeXtXtXtXtXtXeXeXeXeX9X6X6XeX6X",
"KXKXKXKXDXDXSXJXJXFXFXFXCXCXAXCXVXVXCXZXVX$X5.b J x N [ (.%XgXgXCXaXXX(.L I p.,XdXuXuX6XtXqXyXyXeXtXeXtXtXeXtXeXeXeX6X1X9X1XeX1X",
"PXKXPXGXKXGXSXSXZXCXCXAXVXAXBXNXNXfXBX%X X2.C c = b 4.+X%X&X&XgXNXkXgX%X<.@.=. XrX9XtX7XtXtXwX9X9X1XeXeX6XeX6X1X1XeX9X6X6X6X1X1X",
"PXKXKXKXHXFXFXCXBXAXNXVXBXNXNXjXfX%XXX-.K b 7 z B [ ).XX%X&XBXNXgX&X&X@X X%.$.p.2X2X4XtXuXtX9X9X9X6XeXeXeX6X1XeX1X6X6X6X2X1X6X1X",
"SXGXGXHXHXSXBXBXBXNXCXNXjXjXkXpX Xz.3.C N K ) B 4.|.(.}.|.|.*X&XgXgX*XXX}.#.U 1.m.2X6XuX1XqXtX9X9XeX6XeXeXeX9X9XeX1X6X6X2X9X6X2X",
"SXSXSXHXCXBXBXNXVXCXNXNXkXgX%X Xk.k.] b K { ) 4.{.XX}.,.,.,.6.=X#X*XXX@Xj.V J =.M.6XtX6XqXtXwX9XeX6X9XeX6X1X6X6X9X6X9X6X6X2X2X6X",
"FXCXFXFXfXXX$X%XNXkXgXgXaX*X Xz.k.l.b G c { { ).XX*XNX&Xb.6.b.*Xb.b.j.|.g.L J >.:XrX6X6X4XtXwX<X1X1X2X9X1X1X6X6X6X1XeX6X6X6X6X2X",
"ZXZXLXCX$X5.l.j.*X%X&X%X@Xm.g.=.(.*.k K z N 4.5.$X*XNXVXNXNXNXBX,.&.;.j.@.B U z.:X6XrX6XqXwXwX<X9X6X6X6X6XeXeX1X1X6X1X1X2X6X2X0X",
"AXAXZXxXf.:.s.5. X|.#XXX}.:.=.-.g.b < b N ) 4.).,.6.|.b.b.&XNX&XXX5.%.&.C l J p.:X:XeXeX6X1X4XwX9X1X6X1X6X1XeX1X6X6X1X9X6X2X9X2X",
";X-XiX_.>.} :.:.g.j.n.k.5.*.*.:.s.G x x { ) %.).&.&.7.6.6.,.|.*XkXXXj.%.B b P z.:X6XrXrX6X1X4XqXqX6XeXeX1X9X6XeX9X6XeX2X6X2X2X6X",
"f.x.x.d.-.} *.;.;.=.:.5.:.} *.s.s.c G z ` N C 6.7.#.Z b.6.C %.4.|.&X%XI Z K g.pX:X:X6X6X1X1XqXqX1X6X1X1X9X6X2X6X6X2X6X6X2X6X6X0X",
"a.d.d.d.i.} *.>.=.%.=.g.3.-.} 2.3.% N n 7 7 B ,.b.b.7.=X=X] &.%.;.}.j.Z V l.pX0XsXrX9X6XqXqX4X1X2X6X1X6X2X6X1X6X1X9X9X2X6X6X2X6X",
"0.a.y.t...} *.>.$.<.@.;.5.-.4.' _.' , p v 2 k ] |.*X7.6.=X6.L L %.,.C Z %.OXkXhXdXdXaXwXqX<X<X9X1X1X1X1X4X1XqX0X4X1XqX0X<X4X<X1X",
"0. .+.| t.} I >.&.=.=.=.3.P )._.{ N i v s : < b 6.*X=X,.#.C #.&.<.L V C ;.b.@XkXwX@X#X0XwXwXqX<X2X1X1X1X4X1X<X1X1X1X<X1X<X4X1X4X",
"_ H F d._.2.} *.-.%.;.;.' - } s.G N N M s < k l B b.gX&X6.7.6.6.%.l k V C %.j.OXn.#X0X0X#X1X<X<X<X<X1X1X4X<X<X<X1XqX<X4X<X4X1X<X",
"S s F /.oX .} >.-.&.&.4.l % < s ) z p t , < p B C B &.b.b.,.{ = - V &.:.L V *.}.}.%XjXhXwX9XwXtX<X1X1XqX4X0X4X0X1X<X0X4X1X1X<X4X",
"j j +._.{.G ` -.-.-.] [ - < F F ) z % o : , F ' C B C L B - X : Z b %.(.XXh.K L g. XpXdXkXzXdX0X0X1X0X1X<XqXqX<X1X1X<X4X<X<X4X<X",
"r e O./.f.M v ` 4.&.%.B - , G G ` v = * : + x ' { { L B B 2 X % 2 B b K h.h.I b I :.(.%XdXhXdXaX0X<X<X1X#X<X<X<X<X1X<X<X<X1X<X1X",
"_ _ +.! +.f , ` ` { ` < - < s h ) z = * o . o = N ) ` z X X   % - b K k k B ' -.K } g. XOXkXjXVXdXwXwX0X0X<X<X1X1X1X<X1X<X<X<X1X",
"O.O._ O O.)   i M N = = % ) h ) ) z * * , * X   X X = -   % ; % c = k x k - v K ' K ] :. XpXkXjXjXhXaXwX9X0X0X4X<X<X<X1X<X4X<X<X",
"{./._ h 0.O.$ , t z < = i M F ) { z 7 f y s y   X   X * y o + h x < % = 1 x < x c J b ] l.OXaXNXjXjXhX0X#XwXwX<XqX<X<X1X1X4X1X1X",
"IX{.O.+.O.S $   * * X % t n F M M 7 7 i u a m > g X X 6 h O + a p < < < v N p - - v b K ;.(.XXpXVXhXhXhXdX0X<X9X<X<X<X<X<X1X<X<X",
"a. .a.0.S A A , X % * * = u g g f 7 u i t t f q q + # + h y e 7 * t < * p c p * p - - k I g.XXaXgXhXjXjXdX<X.X1X<X<X<X,X<X<X<X,X",
"..+.-Xf.A S ;   X X * = t n y * u 7 z f 6 q y 7 + q w & h ) n & , v n = * * p x G - - J K I 6.}.OXaXjXjXhXdXrX>X<X<X<X<X<X<X<X<X",
"2...f.H 1 0. . .: X % * p F u # f u f z f f f f u u s s ) g z i n M v i y * * n x x ] h.;.@.;.j.XXOX@XaXzXzXyX>X1X<X<X2X0X<X<X<X",
"Y w.t.u.y.0.0.+.1 , c < % y t u f f n f n f f f h h m y g u n N p q 7 n M s * , % G 3.).g.g.z.j.j.k. XOXm.z.n.B.<X,X1X3X<X4X1X<X",
"Y i.r.v.d.Y 0.0.D s ' p   % 6 n f E n n n f 7 f j h m , i z N N 7 & & y M n * % M ' } %.;.,.1.%.;.:.6.z.p.$.p.<X<X,X,X,X<X1X<X<X",
"r.r.q.w.8.8.| ..c : F < X i u u f n M n n n g n h s h m G t i ) n z t < a u , % G ..[ P @.*.$.=.=.@.@.$.1.p..XtX,X,X,X,X<X<X<X.X",
"r.8.q.u.8.Y Y H D % % X 6 t u g f g ! h M M g g g g g M M n z t ) ) G < x G 2 < H _ ....>.$.1.1.r.p.n.m.M.,X<X4X,X<X,X<X<X1X,X,X",
"r.8.q.q.q.8.Y Y H o . o q y g u f g z M M M E h g g g n n n g i n v G G G c % : ' ..] U $.n.#XM.N.5X3XN.4X1X,X.X1X<X1X<X<X<X,X1X",
"e.r.q.q.e.r.Y 9...o . + t e j u d f f f g n M M n g g g n M M M z N c b >.h.P : P P P U i.9XdX<X,X,X1X1X1X<X<X,X,X1X,X<X,X4X<X<X",
"r.v.r.r.v.e.| 0....   & q & w w 6 7 t d f f h n n n n g n M M M i ) c < h.VXOXU l J | z..X9X4XM.<X,X,X,X<X<X<X<X,X,X<X,X,X,X<X,X",
"8.r.r.q.y.e.t.a.H   o + > O ; 8 6 6 6 6 q f f f h g g g g g n n a M k H _.lXdXOXU i.m.sXdX,X>XtX4X4X1X,X1X4X1X4X<X<X,X<X,X<X<X,X",
"r.r.q.q.e.y.u.f.1   o o ; $ O ; @ @ & & 6 u t u f f i i i y t y m h x P 0X0XtXzXm.>X2XrXeX1X4X9X.XB.B..X>X,X1X4X,X,X,X,X,X,X,X,X",
"e.q.q.q.y.u.d.0.o + ; $ ; ; $ ; # # # & 6 6 q q q t u e t q q y s m v I aXwXqX5XdX7X>X>X2XeX1XB.tX4X4X1X,X,X>X,X,X,X<X,X,X,X,X,X",
"e.q.q.v.y.y.9.H o ; 8   ; ; $ o * # & 6 6 q 6 7 e e u 7 t q y u q s k } hX<X4X5XB.B.3XtXeX2X2XtX,X4X,X1X,X<X4X,X,X,X,X,X,X,X<X,X",
"r.v.e.q.w.| .., o + # O # # $ ; # # @ 6 0 0 q q q q q t y w y y y c 2 s.dX4X5X5XN.N.5X3X6X1X3X1X<X4X1X1X1X,X1X<X<X,X,X,X,X,X,X,X",
"u.v.r.Y Y Y H : o @ # O 4 + o + # & & & 6 q q q 0 q q y w t y y s m 1 z.dX3XN.N.N.N.3X3X1X1X9X1X1X4X<X<X<X4X<X<X<X,X,X,X,X<X,X,X",
"e.v.8.Y T H A > O & 3 $ + + O + # # & 6 0 0 q q q q w w y t y u s x H  XyX1XN.N.N.N.3X3X3X9X3X5X4X<X4X1X4X<X4X<X<X,X,X,X,X<X<X,X",
"r.q.T T D A 2 ; O 6 4 O + + o ; O # # & 6 0 0 q q w w w w y y u s 1 I 0XeX7X8XN.N.3X1X1X4X4XqX5X4X4X<X4X1X1X<X1X<X,X,X,X<X<X,X,X",
"8.8.T D A A : ; # 6 4 O @ + o o + @ @ & 0 0 q q w w w w w w u s v 1 >.dXrX6XB.6X3X6X9X6X9X9XqX*X4X4X1X1X4X1X<X<X<X<X,X,X<X1X,X,X",
"9.8.T T A H : o 4 3 3 # @ ; + + @ @ @ 8 0 q q e w e y e w y u p v 2 c.sX:X6X6X2X6X6X6X6X9X9XqXqX4X1X1X4X<X1X4X1X1X<X,X,X<X<X<X,X",
"0.9.9.9.Y 0.A $ # 3 3 # @ @ o : @ @ @ 0 0 0 e e e e y w w u s s D l oXrXrX6X6X6X6X6X6X9X9XwXqXqX4X1X1X4X4X1X1X4X<X<X,X<X<X<X<X<X",
"9.u.0.x.0._.A   # 6 3 # @ + o + + > > 0 e w e e e u e w w w s s x l :X:XuX6X6X2X6X6X9XrXwXqX4XqXqX4X4X1X4X<X1X4X<X<X,X,X1X1X<X,X",
"9.9.9.9.x.xX_.  ; O @ 6 @ # o , > > > > j j e e e e f u y q y v 2 P :XrXrX6X6X7XeXtXeXeX9X6X6X1X4X4X4XqX4X4X4X4X<X4X<X4X4X#X5X4X",
"8.9.9.x.;XxX_.S j $ 3 3 O & , + > > > > r 8 e e f f q 0 w a n p l } pXrXrXeX6X2XtX9XtXeX1X6X6X6X1X4X4X4X4X<X4X<X<X<X5X<X<X4X<X4X",
"Y u.x.;XxX-XO._ 0.9 4 3 O # j 8 0 > 8 0 r j d d 6 e h f u g f 1 l >.rXrX6X6X6X3XqX1XqX9XeX1X6X1X<X4X<X4X<X5X4X<X4X<X<X<X<X5X<X4X",
"c._._.-X-X{._ 8 ^ P.X.O 5 9 $ $ 8 8 @ 3 8 0 0 8 f f e q w s a c 2 i.rXrX6X6X6X3X7XqX9XqX9X6X6X1X<X4X<X4X4X4X<X<X<X<X5X<X<X<X<X<X",
":X_.[.-XnX].F./ X.! o./.W $ d 5 3 3 3 6 d 6 6 3 d 6 6 e g s a x U m.yXyX6X3X8X7X3X4XqXqXqX1X1X1X4X4X4X4X4X4X4X<X5X<X<X<X<X<X<X5X",
".XoX$X[.].nXnX!.R Q R X.P.X.Q $ 4 4 4 4 3 9 r 6 @ 3 e f j u h ) k.dXyX6X8XuX3X3X4XqXqXqXqX4X1X4X4X4XqX4X4X4X<X4X<X<X<X5X<X4X<X<X",
"oXoX$XnX`.bXmXvXmXD.5 R o.Z.J.J.E d 9 4 4 4 4 4 3 d e @ > h +.s.oXzXrX6X7X8X3X8X8XqXqXqXqX4X4X4XqXqX5XqX5X4X4X4X4X<X<X<X<X<X<X4X",
"oX_.[.nXmXmXmXvXY.`.T.X.E ~ J.`.'.P.o.^ E 9 9 9 4 8 r d _ /.G.' g.yXeXuX8X3X3XuX5X5XqXqXqXqX4XqX4XqXqX4XwX4X4X4X<X4X4X<X4X4X4X<X",
"oX[.{.'.!.UXUXUX~.W.Q.Q.o.I.o.^ ~ o.'.`.'.'.G.O.G.O.G./.].+.E +.:XrXtX6X7X8XN.8X8XqXqXqXqXqX4X7X4X4XqX4X4X4XqX5X4X4X4X4X5X<X<X4X",
"_._.{.P.I.!.!.!.UX~.].].Q.Q.A.R Q R E X.F.'.G.X.X.O.X.! G.O.^ 2.pXsXyXtXuX8XN.8XqX8XuXqXqXqXqXtX4X4X4X4XqX4XqX4X4X4XqXqX<X4X<X4X",
"[.{.'.W.I.U.U.H.U.I.I.I.J.Y.Q.Y./ / / / / W W ^ ! E E 9 X.O.E /.lXdXuXtXuX8X8X7X8XqXwXwXqXqXqXqX4X4X4X4X4X4XqX4X4X4X4X5X4X4X4X4X",
"[.'.T.W.Q.!.!.I.C.A.A.I.H.J.!.~.W.F.Z.X./ E R R Q E R E X.G.o.].iXsXsXeX7XuX8X8XqXuXqXuXuXqX5XtX4XqX4X4XqX4XqXqX4X4X4X#X4X4X<X4X",
"nXF.S.R.Q.~.~.U.H.H.C.C.C.A.A.I.bXR.S.Z.Z./ ^ R ! o.Z.F.F.`.`./.iXsXrXrXuXuX7X7XtXuXwXwXtXtX6XtX4XwX4XqXqXqX5X5X4X4X4X4X4X4X<X5X",
"bXS.V.D.I.U.!.U.!.L.H.V.V.V.V.C.A.Y.R.S.D.Z.Z.o.Z.J.T.bX`.J.`.G.iXlXsXrXrXuX7X7XtXtXtXtXtXeXtXeXtX5XtX4XqXqXqXqXqX4X4X4X<X4X4X4X",
"vXJ.D.A.A.I.U.U.L.^.!.^.H.V.V.( ( Z.Z.A.S.Q.Q.I.`.J.F.J.F.D.E.'.iXfXdXrXrXuX7X7XtXtXuXtXtXrXeX7X4XtX5XwX5XqXqXqX4X4X4X4X4X4X4X4X",
"~.~.R.U.I.A.A.H.H.H.L.L.^.^.H.C.V./ C.Z.S.I.P.S.D.S.T.S.E.!.cX`.$XsXzXrXrXrXuXuXuXtXyXtXrX7X7XtX7XwX5XtXqXqXqXqX4XqXqX4X4X4X4X<X"
};
